<svg xmlns="http://www.w3.org/2000/svg" xmlns:xlink="http://www.w3.org/1999/xlink" width="500" zoomAndPan="magnify" viewBox="0 0 375 374.999991" height="500" preserveAspectRatio="xMidYMid meet" version="1.0"><defs><filter x="0%" y="0%" width="100%" height="100%" id="a6385d1f5c"><feColorMatrix values="0 0 0 0 1 0 0 0 0 1 0 0 0 0 1 0 0 0 1 0" color-interpolation-filters="sRGB"/></filter><g/><mask id="5b95824f09"><g filter="url(#a6385d1f5c)"><rect x="-37.5" width="450" fill="#000000" y="-37.499999" height="449.999989" fill-opacity="0.38"/></g></mask><clipPath id="b772e5177c"><path d="M 0.703125 0.726562 L 228.703125 0.726562 L 228.703125 2.976562 L 0.703125 2.976562 Z M 0.703125 0.726562 " clip-rule="nonzero"/></clipPath><clipPath id="137bc76f52"><rect x="0" width="230" y="0" height="4"/></clipPath><clipPath id="d4ac21b805"><path d="M 81.421875 132.324219 L 131 132.324219 L 131 172.074219 L 81.421875 172.074219 Z M 81.421875 132.324219 " clip-rule="nonzero"/></clipPath><clipPath id="f1cf396818"><path d="M 89 134 L 172.171875 134 L 172.171875 167 L 89 167 Z M 89 134 " clip-rule="nonzero"/></clipPath></defs><g fill="#242424" fill-opacity="1"><g transform="translate(78.052198, 198.939815)"><g><path d="M 3.03125 0 L 3.03125 -25.203125 L 8.75 -25.203125 L 8.75 0 Z M 3.03125 0 "/></g></g></g><g fill="#242424" fill-opacity="1"><g transform="translate(89.82422, 198.939815)"><g><path d="M 3.03125 0 L 3.03125 -25.203125 L 7.890625 -25.203125 L 19.015625 -9.859375 L 19.015625 -25.203125 L 24.703125 -25.203125 L 24.703125 0 L 19.84375 0 L 8.71875 -15.4375 L 8.71875 0 Z M 3.03125 0 "/></g></g></g><g fill="#242424" fill-opacity="1"><g transform="translate(117.544269, 198.939815)"><g><path d="M 3.03125 0 L 3.03125 -25.203125 L 18.828125 -25.203125 L 18.828125 -20.015625 L 8.75 -20.015625 L 8.75 -13.71875 L 17.890625 -13.71875 L 17.890625 -8.671875 L 8.75 -8.671875 L 8.75 0 Z M 3.03125 0 "/></g></g></g><g fill="#242424" fill-opacity="1"><g transform="translate(137.956304, 198.939815)"><g><path d="M 3.03125 0 L 3.03125 -25.203125 L 8.75 -25.203125 L 8.75 0 Z M 3.03125 0 "/></g></g></g><g fill="#242424" fill-opacity="1"><g transform="translate(149.728326, 198.939815)"><g><path d="M 3.03125 0 L 3.03125 -25.203125 L 7.890625 -25.203125 L 19.015625 -9.859375 L 19.015625 -25.203125 L 24.703125 -25.203125 L 24.703125 0 L 19.84375 0 L 8.71875 -15.4375 L 8.71875 0 Z M 3.03125 0 "/></g></g></g><g fill="#242424" fill-opacity="1"><g transform="translate(177.448375, 198.939815)"><g><path d="M 3.03125 0 L 3.03125 -25.203125 L 8.75 -25.203125 L 8.75 0 Z M 3.03125 0 "/></g></g></g><g mask="url(#5b95824f09)"><g transform="matrix(1, 0, 0, 1, 76, 199)"><g clip-path="url(#137bc76f52)"><g clip-path="url(#b772e5177c)"><path stroke-linecap="butt" transform="matrix(2.425532, 0, 0, 2.137017, 0.704543, 0.78465)" fill="none" stroke-linejoin="miter" d="M -0.000584581 0.499253 L 93.999419 0.499253 " stroke="#000000" stroke-width="1" stroke-opacity="1" stroke-miterlimit="10"/></g></g></g></g><g clip-path="url(#d4ac21b805)"><path fill="#8c52ff" d="M 129.417969 157.710938 C 127.484375 156.261719 125.589844 154.734375 123.738281 153.226562 C 122.351562 154.285156 120.964844 155.320312 119.566406 156.3125 C 117.667969 157.65625 115.75 158.921875 113.8125 160.035156 C 112.84375 160.59375 111.867188 161.113281 110.894531 161.582031 C 109.921875 162.054688 108.945312 162.472656 107.972656 162.832031 C 106.027344 163.539062 104.097656 163.996094 102.257812 164.09375 C 101.335938 164.140625 100.421875 164.105469 99.523438 163.988281 C 98.625 163.867188 97.742188 163.65625 96.890625 163.375 C 95.183594 162.800781 93.597656 161.90625 92.234375 160.773438 C 90.867188 159.644531 89.71875 158.277344 88.851562 156.789062 C 88.421875 156.042969 88.058594 155.265625 87.765625 154.472656 C 87.617188 154.078125 87.492188 153.675781 87.367188 153.273438 C 87.316406 153.070312 87.261719 152.867188 87.210938 152.664062 C 87.15625 152.460938 87.125 152.253906 87.078125 152.050781 C 87.03125 151.839844 87.007812 151.660156 86.976562 151.472656 L 86.929688 151.195312 L 86.917969 151.121094 L 86.894531 150.851562 L 86.859375 150.488281 L 86.835938 150.21875 C 86.835938 150.339844 86.835938 150.230469 86.835938 150.246094 L 86.832031 150.210938 C 86.824219 150.003906 86.8125 149.800781 86.804688 149.597656 C 86.789062 148.785156 86.808594 147.980469 86.898438 147.191406 C 86.996094 146.40625 87.148438 145.640625 87.34375 144.898438 C 87.558594 144.160156 87.800781 143.445312 88.085938 142.761719 C 88.679688 141.402344 89.425781 140.171875 90.261719 139.101562 C 91.09375 138.027344 92.019531 137.121094 92.949219 136.359375 C 93.886719 135.597656 94.832031 134.992188 95.730469 134.507812 C 97.539062 133.542969 99.140625 133.066406 100.242188 132.8125 C 100.519531 132.753906 100.765625 132.699219 100.976562 132.65625 C 101.191406 132.609375 101.375 132.585938 101.519531 132.558594 C 101.816406 132.511719 101.964844 132.488281 101.964844 132.488281 C 101.964844 132.488281 101.8125 132.46875 101.519531 132.433594 C 101.371094 132.417969 101.1875 132.394531 100.96875 132.375 C 100.746094 132.363281 100.488281 132.347656 100.195312 132.332031 C 99.902344 132.328125 99.578125 132.332031 99.214844 132.332031 C 99.035156 132.339844 98.847656 132.351562 98.652344 132.359375 C 98.453125 132.371094 98.246094 132.382812 98.035156 132.410156 C 97.179688 132.484375 96.203125 132.660156 95.121094 132.957031 C 94.039062 133.253906 92.859375 133.699219 91.636719 134.335938 C 91.023438 134.648438 90.40625 135.023438 89.785156 135.441406 C 89.171875 135.875 88.542969 136.34375 87.941406 136.886719 C 87.328125 137.417969 86.734375 138.019531 86.164062 138.675781 C 85.59375 139.335938 85.0625 140.0625 84.546875 140.839844 C 84.054688 141.625 83.582031 142.460938 83.179688 143.363281 C 82.785156 144.265625 82.441406 145.222656 82.160156 146.226562 C 81.894531 147.230469 81.6875 148.28125 81.578125 149.363281 C 81.554688 149.636719 81.535156 149.910156 81.511719 150.183594 C 81.5 150.449219 81.492188 150.71875 81.480469 150.988281 L 81.472656 151.167969 L 81.46875 151.261719 L 81.46875 151.371094 L 81.480469 151.820312 C 81.484375 152.121094 81.492188 152.429688 81.515625 152.707031 C 81.632812 154.988281 82.207031 157.339844 83.199219 159.601562 C 83.695312 160.730469 84.296875 161.839844 85.015625 162.894531 C 85.738281 163.945312 86.566406 164.945312 87.492188 165.878906 C 89.351562 167.734375 91.617188 169.296875 94.171875 170.375 C 96.71875 171.457031 99.554688 172.042969 102.414062 172.046875 L 102.632812 172.050781 C 102.707031 172.050781 102.773438 172.050781 102.878906 172.046875 L 103.460938 172.027344 L 103.75 172.015625 L 104.015625 171.996094 L 104.542969 171.957031 C 105.246094 171.894531 105.945312 171.800781 106.632812 171.679688 C 108.007812 171.433594 109.351562 171.097656 110.648438 170.679688 C 111.945312 170.257812 113.199219 169.765625 114.417969 169.226562 C 115.636719 168.6875 116.816406 168.09375 117.964844 167.46875 C 119.117188 166.847656 120.230469 166.179688 121.324219 165.492188 C 122.414062 164.808594 123.480469 164.097656 124.523438 163.371094 C 126.679688 161.867188 128.742188 160.292969 130.746094 158.703125 C 130.324219 158.394531 129.894531 158.070312 129.417969 157.710938 " fill-opacity="1" fill-rule="nonzero"/></g><path fill="#8c52ff" d="M 170.257812 147.285156 C 170.167969 146.75 170.046875 146.21875 169.886719 145.6875 C 169.726562 145.15625 169.527344 144.628906 169.292969 144.113281 C 168.355469 142.039062 166.832031 140.074219 164.789062 138.625 C 162.757812 137.164062 160.273438 136.203125 157.703125 135.875 C 156.421875 135.703125 155.121094 135.679688 153.832031 135.765625 C 152.542969 135.851562 151.269531 136.066406 150.023438 136.367188 C 148.777344 136.664062 147.554688 137.058594 146.367188 137.527344 C 146.070312 137.640625 145.777344 137.765625 145.484375 137.886719 C 145.1875 138.015625 144.910156 138.132812 144.597656 138.28125 L 144.152344 138.492188 L 143.769531 138.675781 L 143.671875 138.722656 L 143.535156 138.792969 L 143.316406 138.90625 C 143.171875 138.984375 143.023438 139.058594 142.882812 139.136719 C 141.742188 139.753906 140.664062 140.410156 139.632812 141.097656 C 138.59375 141.785156 137.589844 142.488281 136.605469 143.210938 C 134.640625 144.652344 132.738281 146.136719 130.855469 147.628906 C 130.828125 147.652344 130.800781 147.671875 130.773438 147.695312 C 132.097656 148.785156 133.394531 149.851562 134.707031 150.898438 C 135.296875 151.367188 136.007812 151.925781 136.722656 152.472656 C 137.019531 152.699219 137.296875 152.914062 137.5625 153.117188 C 138.9375 151.976562 140.285156 150.863281 141.625 149.804688 C 142.511719 149.101562 143.386719 148.417969 144.257812 147.785156 C 145.128906 147.152344 145.988281 146.554688 146.828125 146.039062 C 146.933594 145.972656 147.035156 145.914062 147.140625 145.851562 L 147.335938 145.734375 C 147.355469 145.722656 147.300781 145.75 147.347656 145.726562 L 147.4375 145.671875 L 147.8125 145.464844 L 148.121094 145.292969 C 148.316406 145.179688 148.550781 145.0625 148.761719 144.949219 C 148.980469 144.835938 149.199219 144.726562 149.417969 144.621094 C 149.855469 144.410156 150.289062 144.214844 150.726562 144.039062 C 151.164062 143.859375 151.601562 143.691406 152.035156 143.546875 C 153.773438 142.960938 155.492188 142.660156 157.09375 142.691406 C 158.699219 142.726562 160.191406 143.078125 161.472656 143.761719 C 162.109375 144.101562 162.691406 144.519531 163.222656 144.988281 C 163.75 145.460938 164.203125 146 164.585938 146.582031 C 164.964844 147.164062 165.269531 147.78125 165.5 148.417969 C 165.726562 149.054688 165.871094 149.710938 165.933594 150.359375 C 166.058594 151.660156 165.875 152.945312 165.421875 154.078125 C 164.980469 155.21875 164.292969 156.222656 163.496094 157.035156 C 162.707031 157.867188 161.8125 158.503906 160.949219 159.019531 C 159.207031 160.046875 157.601562 160.550781 156.515625 160.875 C 155.964844 161.027344 155.539062 161.136719 155.25 161.207031 C 154.957031 161.273438 154.808594 161.308594 154.808594 161.308594 C 154.808594 161.308594 154.960938 161.324219 155.257812 161.347656 C 155.558594 161.371094 156 161.40625 156.585938 161.414062 C 157.167969 161.421875 157.894531 161.40625 158.75 161.320312 C 159.605469 161.234375 160.589844 161.0625 161.6875 160.746094 C 162.78125 160.421875 163.980469 159.925781 165.195312 159.140625 C 166.394531 158.351562 167.609375 157.25 168.578125 155.773438 C 169.527344 154.292969 170.230469 152.453125 170.394531 150.417969 C 170.476562 149.402344 170.4375 148.347656 170.257812 147.285156 " fill-opacity="1" fill-rule="nonzero"/><g clip-path="url(#f1cf396818)"><path fill="#0097b2" d="M 96.980469 160.324219 C 96.980469 160.324219 96.867188 160.296875 96.65625 160.246094 C 96.441406 160.199219 96.121094 160.113281 95.714844 159.96875 C 94.914062 159.671875 93.699219 159.160156 92.46875 158.015625 C 91.234375 156.894531 90.042969 155.105469 89.441406 152.796875 C 88.835938 150.496094 88.800781 147.703125 89.65625 144.847656 C 90.085938 143.421875 90.742188 141.984375 91.660156 140.625 C 92.578125 139.265625 93.785156 138 95.25 136.96875 C 96.707031 135.929688 98.445312 135.171875 100.289062 134.761719 C 102.132812 134.339844 104.074219 134.308594 105.960938 134.550781 C 106.4375 134.605469 106.90625 134.691406 107.375 134.777344 L 108.0625 134.929688 C 108.3125 134.996094 108.582031 135.066406 108.820312 135.140625 C 109.761719 135.425781 110.664062 135.78125 111.53125 136.179688 C 113.269531 136.96875 114.886719 137.925781 116.433594 138.949219 C 119.539062 140.988281 122.394531 143.300781 125.21875 145.589844 C 128.015625 147.902344 130.773438 150.207031 133.503906 152.394531 C 134.191406 152.941406 134.875 153.476562 135.5625 154 C 136.246094 154.527344 136.929688 155.046875 137.613281 155.546875 C 138.980469 156.554688 140.359375 157.492188 141.734375 158.375 C 144.484375 160.125 147.257812 161.570312 150.007812 162.5 C 150.691406 162.738281 151.375 162.9375 152.054688 163.105469 L 152.308594 163.167969 L 152.4375 163.195312 L 152.53125 163.21875 C 152.53125 163.21875 152.582031 163.230469 152.535156 163.222656 C 152.71875 163.257812 152.902344 163.296875 153.085938 163.332031 C 153.4375 163.394531 153.722656 163.453125 154.070312 163.5 C 155.402344 163.699219 156.714844 163.738281 157.96875 163.65625 C 160.480469 163.507812 162.746094 162.828125 164.617188 161.902344 C 166.492188 160.976562 167.957031 159.804688 169.070312 158.734375 C 170.175781 157.652344 170.957031 156.683594 171.449219 155.996094 C 171.703125 155.660156 171.882812 155.386719 172.007812 155.207031 C 172.132812 155.027344 172.199219 154.933594 172.199219 154.933594 C 172.199219 154.933594 172.15625 155.039062 172.074219 155.242188 C 171.988281 155.445312 171.882812 155.757812 171.695312 156.140625 C 171.332031 156.917969 170.777344 158.058594 169.820312 159.382812 C 168.871094 160.699219 167.515625 162.210938 165.589844 163.539062 C 164.632812 164.207031 163.535156 164.808594 162.320312 165.328125 C 161.101562 165.832031 159.757812 166.242188 158.320312 166.496094 C 157.601562 166.632812 156.859375 166.714844 156.101562 166.765625 C 155.34375 166.820312 154.566406 166.828125 153.773438 166.792969 C 153.394531 166.785156 152.945312 166.746094 152.5625 166.707031 C 152.378906 166.6875 152.195312 166.667969 152.007812 166.648438 C 151.800781 166.617188 151.589844 166.585938 151.378906 166.554688 C 150.578125 166.429688 149.769531 166.269531 148.96875 166.066406 C 145.742188 165.261719 142.550781 163.867188 139.488281 162.136719 C 137.953125 161.277344 136.445312 160.328125 134.960938 159.324219 C 134.21875 158.828125 133.480469 158.3125 132.746094 157.792969 C 132.015625 157.265625 131.292969 156.722656 130.570312 156.179688 C 127.679688 154.007812 124.882812 151.675781 122.089844 149.40625 C 120.703125 148.257812 119.316406 147.125 117.929688 146.035156 C 116.535156 144.949219 115.160156 143.875 113.757812 142.910156 C 112.359375 141.945312 110.953125 141.046875 109.542969 140.332031 C 108.839844 139.976562 108.136719 139.667969 107.4375 139.425781 L 106.960938 139.265625 L 106.402344 139.105469 C 106.039062 139.019531 105.671875 138.925781 105.308594 138.867188 C 102.390625 138.304688 99.542969 138.726562 97.265625 140.074219 C 94.972656 141.398438 93.296875 143.558594 92.339844 145.808594 C 91.363281 148.066406 91.078125 150.417969 91.304688 152.4375 C 91.527344 154.464844 92.285156 156.160156 93.199219 157.351562 C 93.652344 157.949219 94.136719 158.433594 94.589844 158.824219 C 95.042969 159.210938 95.476562 159.496094 95.832031 159.714844 C 96.195312 159.925781 96.476562 160.085938 96.679688 160.175781 C 96.878906 160.273438 96.980469 160.324219 96.980469 160.324219 " fill-opacity="1" fill-rule="nonzero"/></g><g fill="#000000" fill-opacity="1"><g transform="translate(178.06098, 198.238509)"><g><path d="M 16.625 0 L 16.625 -36.359375 L 1.984375 -36.359375 L 1.984375 -46.203125 L 41.78125 -46.203125 L 41.78125 -36.359375 L 27.125 -36.359375 L 27.125 0 Z M 16.625 0 "/></g></g></g><g fill="#000000" fill-opacity="1"><g transform="translate(219.443008, 198.238509)"><g><path d="M 5.546875 0 L 5.546875 -46.203125 L 35.90625 -46.203125 L 35.90625 -37.359375 L 15.96875 -37.359375 L 15.96875 -27.78125 L 34.125 -27.78125 L 34.125 -19.015625 L 15.96875 -19.015625 L 15.96875 -8.90625 L 36.625 -8.90625 L 36.625 0 Z M 5.546875 0 "/></g></g></g><g fill="#000000" fill-opacity="1"><g transform="translate(257.063031, 198.238509)"><g><path d="M 0.59375 0 L 18.9375 -46.203125 L 29.234375 -46.203125 L 47.59375 0 L 36.359375 0 L 33.265625 -7.984375 L 14.921875 -7.984375 L 11.8125 0 Z M 17.625 -16.234375 L 30.625 -16.234375 L 24.09375 -33.125 Z M 17.625 -16.234375 "/></g></g></g></svg>